<mxfile host="app.diagrams.net" modified="2024-04-16T07:58:27.708Z" agent="Mozilla/5.0 (Windows NT 10.0; Win64; x64) AppleWebKit/537.36 (KHTML, like Gecko) Chrome/123.0.0.0 Safari/537.36" etag="8WpW874H0e7N1PmIsIu1" version="24.2.5" type="device">
  <diagram name="第 1 页" id="KCZ6DBbbJYXzhV5r-M3T">
    <mxGraphModel dx="1674" dy="738" grid="1" gridSize="10" guides="1" tooltips="1" connect="1" arrows="1" fold="1" page="1" pageScale="1" pageWidth="827" pageHeight="1169" math="0" shadow="0">
      <root>
        <mxCell id="0" />
        <mxCell id="1" parent="0" />
        <mxCell id="f0uH-y53EEXBg_RfBFDv-1" value="" style="shape=partialRectangle;whiteSpace=wrap;html=1;left=0;right=0;fillColor=none;" parent="1" vertex="1">
          <mxGeometry x="170" y="220" width="460" height="60" as="geometry" />
        </mxCell>
        <mxCell id="f0uH-y53EEXBg_RfBFDv-2" value="发送方" style="strokeWidth=2;html=1;shape=mxgraph.flowchart.start_1;whiteSpace=wrap;" parent="1" vertex="1">
          <mxGeometry x="40" y="220" width="100" height="60" as="geometry" />
        </mxCell>
        <mxCell id="f0uH-y53EEXBg_RfBFDv-3" value="接收方" style="strokeWidth=2;html=1;shape=mxgraph.flowchart.start_1;whiteSpace=wrap;" parent="1" vertex="1">
          <mxGeometry x="670" y="220" width="100" height="60" as="geometry" />
        </mxCell>
        <mxCell id="f0uH-y53EEXBg_RfBFDv-8" value="msg1" style="rounded=0;whiteSpace=wrap;html=1;" parent="1" vertex="1">
          <mxGeometry x="540" y="236.25" width="80" height="27.5" as="geometry" />
        </mxCell>
        <mxCell id="f0uH-y53EEXBg_RfBFDv-9" value="msg2" style="rounded=0;whiteSpace=wrap;html=1;" parent="1" vertex="1">
          <mxGeometry x="380" y="236.25" width="120" height="27.5" as="geometry" />
        </mxCell>
        <mxCell id="f0uH-y53EEXBg_RfBFDv-10" value="msg3" style="rounded=0;whiteSpace=wrap;html=1;" parent="1" vertex="1">
          <mxGeometry x="180" y="236.25" width="160" height="27.5" as="geometry" />
        </mxCell>
        <mxCell id="f0uH-y53EEXBg_RfBFDv-14" value="msg1" style="rounded=0;whiteSpace=wrap;html=1;fillColor=#FFD966;" parent="1" vertex="1">
          <mxGeometry x="420" y="420" width="80" height="27.5" as="geometry" />
        </mxCell>
        <mxCell id="f0uH-y53EEXBg_RfBFDv-15" value="msg2" style="rounded=0;whiteSpace=wrap;html=1;fillColor=#FFD966;" parent="1" vertex="1">
          <mxGeometry x="300" y="420" width="120" height="27.5" as="geometry" />
        </mxCell>
        <mxCell id="f0uH-y53EEXBg_RfBFDv-16" value="msg3" style="rounded=0;whiteSpace=wrap;html=1;fillColor=#FFD966;" parent="1" vertex="1">
          <mxGeometry x="140" y="420" width="160" height="27.5" as="geometry" />
        </mxCell>
        <mxCell id="f0uH-y53EEXBg_RfBFDv-17" value="" style="shape=partialRectangle;whiteSpace=wrap;html=1;left=0;right=0;fillColor=none;" parent="1" vertex="1">
          <mxGeometry x="410" y="540" width="160" height="60" as="geometry" />
        </mxCell>
        <mxCell id="f0uH-y53EEXBg_RfBFDv-18" value="msg1" style="rounded=0;whiteSpace=wrap;html=1;fillColor=#FFD966;" parent="1" vertex="1">
          <mxGeometry x="490" y="556.25" width="80" height="27.5" as="geometry" />
        </mxCell>
        <mxCell id="f0uH-y53EEXBg_RfBFDv-19" value="msg2" style="rounded=0;whiteSpace=wrap;html=1;fillColor=#FFD966;" parent="1" vertex="1">
          <mxGeometry x="370" y="556.25" width="120" height="27.5" as="geometry" />
        </mxCell>
        <mxCell id="f0uH-y53EEXBg_RfBFDv-20" value="msg3" style="rounded=0;whiteSpace=wrap;html=1;" parent="1" vertex="1">
          <mxGeometry x="210" y="556.25" width="160" height="27.5" as="geometry" />
        </mxCell>
        <mxCell id="f0uH-y53EEXBg_RfBFDv-21" value="" style="endArrow=none;dashed=1;html=1;dashPattern=1 3;strokeWidth=2;rounded=0;" parent="1" edge="1">
          <mxGeometry width="50" height="50" relative="1" as="geometry">
            <mxPoint x="410" y="620" as="sourcePoint" />
            <mxPoint x="410" y="510" as="targetPoint" />
          </mxGeometry>
        </mxCell>
        <mxCell id="f0uH-y53EEXBg_RfBFDv-22" value="接收方缓冲区" style="text;html=1;align=center;verticalAlign=middle;whiteSpace=wrap;rounded=0;" parent="1" vertex="1">
          <mxGeometry x="435" y="600" width="110" height="30" as="geometry" />
        </mxCell>
        <mxCell id="f0uH-y53EEXBg_RfBFDv-23" value="接收不到的部分" style="text;html=1;align=center;verticalAlign=middle;whiteSpace=wrap;rounded=0;" parent="1" vertex="1">
          <mxGeometry x="310" y="640" width="100" height="30" as="geometry" />
        </mxCell>
        <mxCell id="f0uH-y53EEXBg_RfBFDv-24" value="" style="endArrow=classic;html=1;rounded=0;" parent="1" edge="1">
          <mxGeometry width="50" height="50" relative="1" as="geometry">
            <mxPoint x="340" y="640" as="sourcePoint" />
            <mxPoint x="390" y="590" as="targetPoint" />
          </mxGeometry>
        </mxCell>
      </root>
    </mxGraphModel>
  </diagram>
</mxfile>
